# xmcd
#
# Track frame offsets:
#  150
#  15540
#  27737
#  39214
#  54469
#  66831
#  81382
#  94824
#  107187
#  120041
#  133233
#  147403
#  162755
#  174563
#  187917
#
# Disc length: 2665 seconds
#
# Revision: 2
# Processed by: cddbd v1.5.1PL0 Copyright (c) Steve Scherf et al.
# Submitted via: KiC 3.1 - (C) 1996-1999 Alwin Hoogerdijk
#
DISCID=c70a670f
DTITLE=Lena Horne - The Young Star
DYEAR=1900
DGENRE=
TTITLE0=Stormy Weather
TTITLE1=What Is This Thing Called Love?
TTITLE2=Ill Wind (You're Blowin' Me No Good)
TTITLE3=The Man I Love
TTITLE4=Where Or When?
TTITLE5=I Got A Right To Sing The Blues
TTITLE6=Mad About The Boy
TTITLE7=Moanin' Low
TTITLE8=As Long As I Live
TTITLE9=I Ain't Got Nothin' But The Blues
TTITLE10=I Didn't Know About You
TTITLE11=One For My Baby (And One More For The Road)
TTITLE12=Suddenly It's Spring
TTITLE13=Do Nothin' Till You Hear From Me
TTITLE14=I'll Be Around
EXTD=1. STORMY WEATHER (Harold Arlen - Ted Koehler]\nRecorded in Hollywood, Dec
EXTD=ember 15,1941.\n\n2. WHAT IS THIS THING CALLED LOVE? (Cole Porter]\nRecord
EXTD=ed in Hollywood, December 15,1941.\n\n3. ILL WIND (YOU'RE BLOWIN' ME NO GO
EXTD=OD) (Harold Arlen - Ted Koehler]\nRecorded in Hollywood, December 15,1941.
EXTD=\n\n4. THE MAN I LOVE (George Gershwin - Ira Gershwin]\nRecorded in Hollyw
EXTD=ood, December 15,1941.\n\n5. WHERE OR WHEN? (Richard Rodgers - Lorenz Hart
EXTD=]\nRecorded in Hollywood, December 17,1941.\n\n6. I GOT A RIGHT TO SING TH
EXTD=E BLUES (Harold Arlen - Ted Koehler]\nRecorded in Hollywood, December 17,1
EXTD=941.\n\n7. MAD ABOUT THE BOY (Noel Coward]\nRecorded in Hollywood, Decembe
EXTD=r 17, 1941.\n\n8. MOANIN' LOW (Ralph Rainger - Howard Dietz]\nRecorded in 
EXTD=Hollywood, December 17,1941.\n\n9. AS LONG AS I LIVE (Harold Arlen - Ted K
EXTD=oehler]\nRecorded in Hollywood, November 21,1944.\n\n10. I AIN'T GOT NOTHI
EXTD=N' BUT THE BLUES (Duke Ellington - Don George - Larry Fotin]\nRecorded in 
EXTD=Hollywood, November 21,1944.\n\n11. I DIDN'T KNOW ABOUT YOU (Duke Ellingto
EXTD=n - Bob Russell]\nRecorded in Hollywood, November 21, 1944.\n\n12. ONE FOR
EXTD=MY BABY (AND ONE MORE FOR THE ROAD]\n(Harold Arlen -Johnny Mercer]\nRecor
EXTD=ded in Hollywood, November 21, 1944.\n\n13. SUDDENLY IT'S SPRING (Johnny B
EXTD=urke - Jimmy Van Heusen]\nRecorded January 20,1944 (location unknown).\n\n
EXTD=14. DO NOTHIN' TILL YOU HEAR FROM ME (Duke Ellington - Bob Russell]\nRecor
EXTD=ded January 20,1944 (location unknown).\n\n15. I'LL BE AROUND (Alec Wilder
EXTD=]\nRecorded January 20,1944 (location unknown).\n\nTracks 1- 8: Orchestra 
EXTD=conducted by Lou Bring\nTracks 9 - 12: Orchestra conducted by Horace Hende
EXTD=rson,\nfeaturing\nIllinois Jacquet, tenor saxophone;\nDave Barbour, guitar
EXTD=;\nLennie Hayton, piano;\nBig Sid Catlett, drums.\nTracks 13-15: Personnel
EXTD=unknown\n\nTK56
EXTT0=
EXTT1=
EXTT2=
EXTT3=
EXTT4=
EXTT5=
EXTT6=
EXTT7=
EXTT8=
EXTT9=
EXTT10=
EXTT11=
EXTT12=
EXTT13=
EXTT14=
PLAYORDER=
